<?xml version="1.0" encoding="UTF-8"?>
<svg viewBox="0 0 46 44" xmlns="http://www.w3.org/2000/svg" xmlns:xlink="http://www.w3.org/1999/xlink">
 <defs>
  <filter id="f" x="-.07863" y="-.18155" width="1.1573" height="1.3631">
   <feGaussianBlur stdDeviation=".3624"/>
  </filter>
  <filter id="b" x="-.1627" y="-.09341" width="1.3254" height="1.1868">
   <feGaussianBlur stdDeviation=".3624"/>
  </filter>
  <filter id="c" x="-.13295" y="-.09941" width="1.2659" height="1.1988">
   <feGaussianBlur stdDeviation=".3624"/>
  </filter>
  <filter id="d" x="-.18584" y="-.07908" width="1.3717" height="1.1582">
   <feGaussianBlur stdDeviation=".3624"/>
  </filter>
  <linearGradient id="a">
   <stop stop-color="#7ed249" offset="0"/>
   <stop stop-color="#286325" offset="1"/>
  </linearGradient>
  <linearGradient id="e" x1=".99104" x2=".6078" y1=".51217" y2=".93266" xlink:href="#a"/>
  <linearGradient id="i" x1="-.26944" x2=".86786" y1=".31148" y2="1.0702" xlink:href="#a"/>
  <linearGradient id="j" x1=".91076" x2="-.30129" y1=".51004" y2=".39075" xlink:href="#a"/>
  <linearGradient id="k" x1="-.06467" x2=".82025" y1="-.03487" y2="1.0655" xlink:href="#a"/>
  <linearGradient id="l" x1="1.9582" x2="-.02349" y1="1.0287" y2="-.02665" xlink:href="#a"/>
  <linearGradient id="m" x1="-.14174" x2=".79466" y1=".51296" y2=".05978" xlink:href="#a"/>
  <linearGradient id="n" x1="1.0992" x2="-.53674" y1=".33305" y2=".35882" xlink:href="#a"/>
  <linearGradient id="g" x1=".79904" x2=".25294" y1=".8786" y2=".2183" xlink:href="#a"/>
  <linearGradient id="h" x1="-1.1623" x2=".89856" y1=".37233" y2=".5" xlink:href="#a"/>
 </defs>
 <path d="m22.201 22.464c4.717 6.6633 13.365 14.698 20.54 18.178 0.7603-1.5632 1.1306-2.9166 0.8276-3.9078-7.4701-0.9525-13.979-9.1461-19.409-15.115-0.8858-1.0444-2.313-0.5361-1.9585 0.8445z" fill="url(#e)"/>
 <path d="m20.068 3.7347c-5.7856 2.4194-4.8315 5.9316-4.6875 9.3125 0 0-3.25-8.25 4.6875-9.3125z" fill="#fff" fill-opacity=".6652" filter="url(#b)"/>
 <path d="m9.9428 14.235c-4.1299 1.1769-6.8401 3.4293-5.5 8.75-0.13451 0-4.4428-7.8125 5.5-8.75z" fill="#fff" fill-opacity=".6652" filter="url(#c)"/>
 <path d="m14.63 39.922c-1.1857-4.7216 1.5886-9.6115 4-11 0 0-6.8125 2.5625-4 11z" fill="#fff" fill-opacity=".6652" filter="url(#d)"/>
 <path d="m26.318 19.672c1.719-1.29 5.3946-3.8487 11.062-4.5-0.5521-0.8282-7.2887-0.0582-11.062 4.5z" fill="#fff" fill-opacity=".6652" filter="url(#f)"/>
 <path transform="translate(-3.5888 -.65763)" d="m27.116 22.989c-2.7408 4.9064-8.129 6.5511-9.5741 11.15-1.5693 4.9948 0.48219 9.9463 8.2267 6.7865 6.271 4.0721 10.702-1.4037 9.3349-7.8776-0.7422-3.515-7.3199-6.7347-7.9876-10.059z" fill="url(#g)"/>
 <path transform="translate(-3.5888 -.65763)" d="m26.863 25.179c0.92208 5.0266 0.23524 9.7351-0.84211 14.316 0.15599 0 6.0527-5.8105 0.84211-14.316z" fill="url(#h)"/>
 <path transform="matrix(.028213 -.9996 -.9996 -.028213 44.298 50.215)" d="m27.255 21.83c-3.4987 1.1169-8.2682 7.7107-9.7133 12.31-1.5693 4.9948 0.48218 9.9463 8.2267 6.7865 5.7039 3.7039 9.9333-0.87274 9.6534-6.8465-0.1949-4.1597-3.868-8.0007-8.1669-12.25z" fill="url(#i)"/>
 <path transform="matrix(.028213 -.9996 -.9996 -.028213 44.298 50.215)" d="m26.863 25.179c0.92208 5.0266 0.23524 9.7351-0.84211 14.316 0.15599 0 6.0527-5.8105 0.84211-14.316z" fill="url(#j)"/>
 <path transform="matrix(-.99819 .060081 -.060081 -.99819 52.013 43.763)" d="m27.256 22.996c-3.9937 5.1365-8.2688 6.5444-9.7138 11.144-1.5693 4.9948 0.48218 9.9463 8.2267 6.7865 5.9984 3.8773 11.079-0.71008 9.7918-6.7969-0.77412-3.6616-4.8642-5.442-8.3047-11.133z" fill="url(#k)"/>
 <path transform="matrix(-.99819 .060081 -.060081 -.99819 52.013 43.763)" d="m26.99 25.355c-1.5184 4.8798-1.4012 9.6366-0.88109 14.313-0.15486-0.01871-5.3121-6.4946 0.88109-14.313z" fill="url(#l)"/>
 <path transform="matrix(-.000115 -1 1 -.000115 .97243 49.301)" d="m26.948 22.316c-2.5726 3.3907-7.9608 7.2248-9.4058 11.824-1.5693 4.9948 0.48218 9.9463 8.2267 6.7864 6.1976 4.0244 10.024-1.8059 8.7567-8.3785-0.71108-3.6886-4.4486-7.5224-7.5775-10.232z" fill="url(#m)"/>
 <path transform="matrix(-.000115 -1 1 -.000115 .97243 49.301)" d="m26.863 25.179c0.92208 5.0266 0.23524 9.7351-0.84211 14.316 0.15599 0 6.0527-5.8105 0.84211-14.316z" fill="url(#n)"/>
</svg>
